<svg width="17" height="18" viewBox="0 0 17 18" fill="none" xmlns="http://www.w3.org/2000/svg">
<path d="M1.12461 8.76796C1.12461 11.6907 2.82462 14.208 5.28307 15.4045L1.76538 5.76681C1.34298 6.71096 1.12463 7.73363 1.12461 8.76796ZM8.5 16.1433C9.35655 16.1433 10.1804 15.993 10.9519 15.7249L10.8996 15.6268L8.63076 9.41527L6.42076 15.8426C7.07462 16.0387 7.77424 16.1433 8.5 16.1433ZM9.51345 5.30911L12.1811 13.2403L12.92 10.7818C13.2339 9.76181 13.4758 9.0295 13.4758 8.39527C13.4758 7.47989 13.1489 6.8522 12.8742 6.36834C12.495 5.75372 12.1485 5.2372 12.1485 4.63565C12.1485 3.95565 12.6585 3.32796 13.3908 3.32796H13.4823C12.1233 2.08036 10.3448 1.3895 8.5 1.39257C7.2785 1.39235 6.07609 1.69578 5.00096 2.27557C3.92581 2.85538 3.01167 3.69334 2.34076 4.71411L2.81155 4.7272C3.58307 4.7272 4.77307 4.62911 4.77307 4.62911C5.17846 4.6095 5.22424 5.19141 4.82538 5.2372C4.82538 5.2372 4.42654 5.2895 3.97538 5.30911L6.66924 13.2991L8.28424 8.46065L7.13345 5.30911C6.8757 5.29489 6.61841 5.27308 6.36193 5.24372C5.96307 5.21758 6.00885 4.6095 6.40769 4.62911C6.40769 4.62911 7.62385 4.7272 8.34962 4.7272C9.12115 4.7272 10.3111 4.62911 10.3111 4.62911C10.71 4.6095 10.7623 5.19141 10.3635 5.2372C10.3635 5.2372 9.96462 5.28296 9.51345 5.30911ZM12.2073 15.143C13.3231 14.4942 14.249 13.564 14.8927 12.4453C15.5364 11.3266 15.8752 10.0586 15.8754 8.76796C15.8754 7.48641 15.5485 6.28334 14.9731 5.23065C15.0899 6.38879 14.9146 7.55776 14.4631 8.63065L12.2073 15.143ZM8.5 17.268C6.24566 17.268 4.08365 16.3724 2.4896 14.7784C0.895533 13.1843 0 11.0223 0 8.76796C0 6.51362 0.895533 4.35161 2.4896 2.75756C4.08365 1.16349 6.24566 0.26796 8.5 0.26796C10.7543 0.26796 12.9163 1.16349 14.5104 2.75756C16.1045 4.35161 17 6.51362 17 8.76796C17 11.0223 16.1045 13.1843 14.5104 14.7784C12.9163 16.3724 10.7543 17.268 8.5 17.268Z" fill="#126FC2"/>
</svg>
